<svg width="20" height="20" viewBox="0 0 20 20" fill="none" xmlns="http://www.w3.org/2000/svg">
<path d="M18.3333 10C18.3333 14.6023 14.6023 18.3333 10 18.3333C5.39762 18.3333 1.66666 14.6023 1.66666 10C1.66666 5.39763 5.39762 1.66667 10 1.66667C14.6023 1.66667 18.3333 5.39763 18.3333 10Z" fill="#FFCBCB"/>
<path d="M7.47473 7.47473C7.7188 7.23065 8.11454 7.23065 8.35859 7.47473L10 9.11617L11.6414 7.47474C11.8855 7.23067 12.2812 7.23067 12.5253 7.47474C12.7693 7.71882 12.7693 8.11455 12.5253 8.35867L10.8839 10L12.5253 11.6413C12.7693 11.8854 12.7693 12.2812 12.5253 12.5253C12.2812 12.7693 11.8854 12.7693 11.6413 12.5253L10 10.8839L8.35867 12.5253C8.11455 12.7693 7.71882 12.7693 7.47474 12.5253C7.23067 12.2812 7.23067 11.8855 7.47474 11.6414L9.11617 10L7.47473 8.35859C7.23065 8.11454 7.23065 7.7188 7.47473 7.47473Z" fill="#AF0000"/>
</svg>
